<?xml version="1.0" encoding="utf-8"?>
<!-- Generator: Adobe Illustrator 23.0.0, SVG Export Plug-In . SVG Version: 6.00 Build 0)  -->
<svg version="1.1" id="Layer_1" xmlns="http://www.w3.org/2000/svg" xmlns:xlink="http://www.w3.org/1999/xlink" x="0px" y="0px"
	 viewBox="0 0 1000 290.73" style="enable-background:new 0 0 1000 290.73;" xml:space="preserve">
<style type="text/css">
	.st0{fill-rule:evenodd;clip-rule:evenodd;fill:#002D64;}
	.st1{fill-rule:evenodd;clip-rule:evenodd;fill:#CD0F32;}
</style>
<g>
	<g>
		<g>
			<path class="st0" d="M974.2,140.8c-1.56-3.71-3.71-6.69-6.45-8.94c-2.74-2.25-5.72-3.96-8.94-5.13
				c-3.22-1.17-6.35-1.81-9.38-1.91c-3.03-0.09-5.52,0.25-7.48,1.03c-3.52,1.17-5.81,3.18-6.89,6.01c-1.07,2.83-0.54,5.52,1.61,8.06
				c1.76,1.95,4.54,3.86,8.35,5.72c3.81,1.86,8.06,3.91,12.75,6.15c4.69,2.25,9.53,4.79,14.51,7.62c4.98,2.84,9.53,6.21,13.63,10.11
				c4.1,3.91,7.47,8.5,10.12,13.78c2.64,5.28,3.96,11.53,3.96,18.76c0,8.4-1.86,15.78-5.57,22.13c-3.72,6.35-8.65,11.48-14.81,15.39
				c-6.16,3.91-13.09,6.6-20.81,8.06c-7.72,1.47-15.54,1.61-23.45,0.44c-42.95-6.36-46.07-48.98-18.91-50.42
				c4.88,5.86,10.01,10.06,15.39,12.6c5.38,2.54,10.36,3.96,14.95,4.25c4.59,0.29,8.45-0.39,11.58-2.05
				c3.13-1.66,5.03-3.91,5.72-6.74c0.68-2.84-0.15-5.96-2.49-9.38c-2.35-3.42-6.84-6.79-13.49-10.11
				c-6.25-3.13-12.36-6.35-18.32-9.67c-5.96-3.32-11.24-7.04-15.83-11.14c-4.59-4.1-8.3-8.69-11.14-13.78
				c-2.83-5.08-4.25-11.04-4.25-17.88c0-7.03,1.46-13.29,4.4-18.76c2.93-5.47,6.84-10.07,11.73-13.78
				c4.88-3.71,10.45-6.45,16.71-8.21c6.25-1.76,12.7-2.54,19.35-2.35c11.33,0.59,19.98,3.08,25.94,7.47
				c5.96,4.4,9.67,9.38,11.14,14.95c1.47,5.57,0.98,10.99-1.46,16.27C983.93,134.64,979.87,138.45,974.2,140.8L974.2,140.8z
				 M393.83,208.81h55.7l0.25,0.18c5.13,12.59,12.69,23.9,22.48,33.78c1.11,1.11,2.23,2.2,3.38,3.26c-39.07,0-57.76,0-96.82,0
				c-24.01,0-23.96-1.25-23.96-27.34V71.62c0-9.77,3.57-17.39,10.65-22.86c7.09-5.47,16.51-8.11,28.34-7.92V208.81L393.83,208.81z
				 M544.18,90.67c-12.31,0-23.65,2.59-34,7.77c-10.36,5.18-19.45,12.46-27.26,21.84c4.3-2.54,8.89-4.25,13.78-5.13
				c4.88-0.88,9.77-0.98,14.66-0.29c4.88,0.68,9.43,2.05,13.63,4.11c4.2,2.05,7.77,4.84,10.7,8.35c6.84-1.37,13.29-1.32,19.35,0.15
				c6.06,1.46,11.38,4.1,15.98,7.91c4.59,3.81,8.26,8.65,10.99,14.51c2.73,5.86,4.1,12.6,4.1,20.23c0,9.77-2.05,17.93-6.16,24.48
				c-4.1,6.55-9.23,11.48-15.39,14.8c-6.16,3.32-12.8,4.98-19.93,4.98s-13.78-1.61-19.94-4.84c-6.15-3.22-11.28-8.06-15.39-14.51
				c-4.1-6.45-6.16-14.56-6.16-24.33c0-5.67,1.32-10.41,3.96-14.22c2.64-3.81,5.86-6.64,9.67-8.5c3.81-1.86,7.77-2.74,11.87-2.64
				c4.1,0.1,7.62,1.22,10.56,3.37c-0.59-5.47-2.49-10.11-5.72-13.92c-3.22-3.81-7.18-6.74-11.87-8.8
				c-4.69-2.05-9.77-3.17-15.24-3.37c-5.47-0.2-10.75,0.59-15.83,2.34c-5.08,1.76-9.62,4.49-13.63,8.21c-4,3.71-6.89,8.4-8.65,14.07
				c-4.1,14.07-4.4,28.14-0.88,42.21c3.52,14.07,10.55,26.48,21.1,37.23c9.38,9.38,19.98,15.88,31.81,19.49
				c11.82,3.62,23.6,4.6,35.32,2.93c11.73-1.66,22.77-5.81,33.13-12.46c10.36-6.64,18.76-15.54,25.21-26.67
				c7.62-13.49,11.19-27.26,10.7-41.33c-0.49-14.07-4.15-26.87-10.99-38.4c-6.84-11.53-16.27-21.01-28.29-28.44
				C573.35,94.38,559.62,90.67,544.18,90.67L544.18,90.67z M648.34,70.74c0-5.47,1.03-10.11,3.08-13.92
				c2.05-3.81,4.79-6.89,8.21-9.23c3.42-2.35,7.38-4.06,11.87-5.13c4.5-1.08,9.09-1.61,13.78-1.61v54.53h34.01
				c0,3.91-0.34,7.72-1.03,11.43c-0.68,3.71-2,7.09-3.95,10.11c-1.96,3.03-4.6,5.47-7.92,7.33c-3.32,1.86-7.62,2.78-12.9,2.78h-8.21
				v82.96c0,3.13,1.17,5.32,3.52,6.6c2.35,1.27,5.08,1.86,8.21,1.76s6.25-0.83,9.38-2.2c3.13-1.37,5.38-3.23,6.75-5.57
				c2.54,6.45,2.69,12.16,0.44,17.15c-2.25,4.98-5.76,8.99-10.55,12.02c-4.79,3.03-10.36,4.98-16.71,5.86
				c-6.35,0.88-12.31,0.39-17.88-1.47c-5.57-1.86-10.31-5.18-14.22-9.97c-3.91-4.79-5.86-11.28-5.86-19.49v-87.65H637.8
				c-1.35-2.86-2.84-5.67-4.48-8.44c-5.18-8.73-11.49-16.47-18.78-23.22h33.8V70.74L648.34,70.74z M836.92,125.1v42.08
				c0,3.52-0.05,7.28-0.14,11.29c-0.1,4-0.49,7.91-1.18,11.73c-0.68,3.81-1.85,7.38-3.52,10.7c-1.66,3.32-4.15,6.16-7.48,8.5
				c-2.15,1.56-4.64,2.73-7.47,3.52c-2.83,0.78-5.72,1.17-8.65,1.17c-2.93,0-5.77-0.39-8.5-1.17c-2.73-0.78-5.28-1.96-7.62-3.52
				c-3.32-2.15-5.81-4.84-7.48-8.06c-1.66-3.22-2.83-6.69-3.52-10.41c-0.69-3.71-1.03-7.53-1.03-11.43c0-3.91,0-7.62,0-11.14v-43.68
				c0.19-10.55-3.23-18.42-10.26-23.6c-7.03-5.18-16.22-7.57-27.56-7.18v64.49c-0.19,13.29,0.24,24.38,1.32,33.27
				c1.08,8.89,2.69,15.88,4.84,20.96c5.67,13.1,13.68,22.48,24.04,28.14c10.36,5.67,22.47,8.5,36.35,8.5
				c15.05,0,27.95-3.32,38.7-9.97c10.75-6.64,18.47-17.29,23.16-31.95c1.37-4.49,2.44-10.6,3.22-18.32
				c0.78-7.72,1.17-16.17,1.17-25.36V93.9C870.44,94.85,836.92,90.71,836.92,125.1z"/>
		</g>
		<path class="st1" d="M99.14,161.02c0.5-5.91,4.08-11.39,9.85-14.07c8.57-3.97,18.75-0.25,22.72,8.31
			c3.97,8.56,0.25,18.72-8.32,22.68c-4.82,2.23-10.15,2.03-14.6-0.1l0,0.05l-0.96-0.55l-0.13-0.07l-0.35-0.21
			c-19.19-11.11-34.89-31.36-44.42-54.98c-10.81,6.08-20.58,13.65-28.35,22.99c-2.49,3-5.14,6.18-7.77,8.58
			c-2.6,2.37-3.6,2.73-4.47,3.16c19.87,36.28,77.43,58.27,119.06,50.66c-1.5-2.88-2.84-5.84-4-8.89l0.04,0.02
			c-0.81-2.25-1.15-4.71-0.92-7.26c0.85-9.4,9.16-16.33,18.57-15.49c9.41,0.84,16.36,9.14,15.51,18.54
			c-0.48,5.32-3.36,9.86-7.47,12.63l0.09,0.06c-2.99,1.82-6.15,3.43-9.44,4.86c7.47,8.05,15.82,15.77,24.88,22.46
			c12.59-12.95,22.42-28.04,27.3-43.17c-5.38,2.53-11.93,2.19-17.15-1.47c-7.73-5.43-9.59-16.08-4.15-23.8
			c5.44-7.72,16.11-9.58,23.84-4.15c5.07,3.56,7.62,9.36,7.23,15.12c-0.23,21.97-9.88,45.39-25.4,65.24
			c10.66,6.32,22.1,11,34.08,13.05c3.84,0.66,7.93,1.36,11.32,2.44c3.35,1.07,4.16,1.75,4.97,2.29
			c21.49-35.35,11.75-96.2-15.65-128.45c-1.49,2.34-3.1,4.62-4.82,6.81c-0.28,0.38-0.56,0.74-0.87,1.09l0,0.01
			c-1.54,1.78-3.48,3.28-5.76,4.33c-8.57,3.97-18.75,0.25-22.72-8.3c-3.98-8.56-0.25-18.71,8.32-22.68
			c4.83-2.23,10.16-2.03,14.61,0.09l0-0.05l0.89,0.51l0.52,0.3c2.57,1.49,5.09,3.13,7.53,4.94c3.23-10.49,5.75-21.58,7.01-32.77
			c-17.51-4.43-35.5-5.4-51.05-2.06c4.94,3.38,7.95,9.25,7.38,15.62c-0.84,9.4-9.15,16.33-18.57,15.5
			c-9.41-0.84-16.36-9.14-15.52-18.53c0.48-5.33,3.36-9.86,7.47-12.64l-0.09-0.05c19.38-11.73,45.4-15.47,71.26-11.82
			c0.14-12.39-1.53-24.64-5.73-36.04c-1.35-3.65-2.78-7.54-3.55-11.02c-0.75-3.44-0.57-4.48-0.5-5.45
			c-41.36-0.93-89.17,37.92-103.4,77.78c3.24,0.14,6.47,0.46,9.69,0.98l-0.11,0.07c2.36,0.43,4.66,1.36,6.75,2.83
			c7.73,5.42,9.59,16.08,4.15,23.8c-5.44,7.72-16.11,9.58-23.84,4.15c-4.37-3.07-6.86-7.8-7.22-12.73h0l0-0.02
			c-0.05-0.77-0.06-1.54-0.01-2.32c0.03-2.73,0.2-5.49,0.51-8.26c-10.7,2.44-21.57,5.81-31.89,10.31
			C80.38,133.21,88.51,149.24,99.14,161.02L99.14,161.02z M59.08,111.32c-9.75-31.28-8.79-66.67,8.46-94.17
			c2.43-4.45,4.26-5.95,5.22-6.91c1.35,0.83,3,1.96,6.53,2.89c19.18,5.07,41.11,13.96,60.38,26.69
			c22.22-24.08,53.34-40.94,85.78-39.76c5.07-0.13,7.28,0.71,8.59,1.07c-0.04,1.59-0.2,3.58,0.76,7.1
			c5.2,19.14,8.47,42.58,7.08,65.63c31.96,7.2,62.13,25.72,77.32,54.41c2.64,4.33,3.03,6.66,3.37,7.98c-1.4,0.76-3.2,1.62-5.77,4.21
			c-13.98,14.08-32.64,28.62-53.3,38.94c9.74,31.28,8.79,66.67-8.46,94.17c-2.43,4.45-4.26,5.95-5.22,6.91
			c-1.35-0.83-3-1.96-6.53-2.89c-19.18-5.07-41.1-13.96-60.38-26.69c-22.22,24.08-53.35,40.94-85.79,39.76
			c-5.07,0.12-7.28-0.71-8.59-1.07c0.05-1.59,0.2-3.58-0.76-7.1c-5.2-19.15-8.46-42.58-7.08-65.63
			c-31.96-7.21-62.13-25.73-77.33-54.42c-2.64-4.32-3.02-6.66-3.37-7.97c1.4-0.75,3.2-1.62,5.77-4.21
			C19.75,136.18,38.41,121.64,59.08,111.32L59.08,111.32z M91.96,218.92c18.72,2.64,37.51,1.41,53.82-3.93
			c6.59,10.15,15.18,19.15,24.92,27c-20.25,17.83-45.63,29.96-68.96,29.44c0.07-0.97,0.25-2.02-0.5-5.45
			c-0.76-3.48-2.19-7.37-3.54-11.02C93.49,243.56,91.82,231.32,91.96,218.92L91.96,218.92z M108.72,97.11
			c-12.07,0.63-24.16,3.58-35.83,8.08c-5.32-26.45-3.13-54.5,8.99-74.44c0.81,0.54,1.62,1.22,4.97,2.29
			c3.4,1.08,7.48,1.78,11.32,2.44c11.97,2.05,23.42,6.73,34.08,13.05C120.6,63.42,112.25,80.32,108.72,97.11L108.72,97.11z
			 M259.66,168.62c-7.07-17.53-17.54-33.19-30.31-44.65c5.49-10.77,8.99-22.72,10.92-35.08c25.57,8.62,48.77,24.53,59.97,45
			c-0.87,0.43-1.87,0.79-4.47,3.16c-2.63,2.4-5.29,5.59-7.77,8.58C280.24,154.98,270.47,162.55,259.66,168.62z"/>
	</g>
</g>
</svg>
